<?xml version="1.0" encoding="utf-8"?>
<!-- Generator: Adobe Illustrator 24.1.2, SVG Export Plug-In . SVG Version: 6.00 Build 0)  -->
<svg version="1.1" id="Слой_1" xmlns="http://www.w3.org/2000/svg" xmlns:xlink="http://www.w3.org/1999/xlink" x="0px" y="0px"
	 viewBox="0 0 1915 241" style="enable-background:new 0 0 1915 241;" xml:space="preserve">
<style type="text/css">
	.st0{fill:#C9C9C9;}
</style>
<g id="John_Yanulevich">
	<g>
		<path class="st0" d="M113.3,35.7v141.6c0,10.3-3.7,19.1-11.2,26.5s-16.4,11.1-26.6,11.1H52.1c-10.5,0-19.4-3.7-26.8-11
			s-11.1-16.2-11.1-26.6v-36.7c0-4.3,1.1-7.6,3.4-10s5.3-3.6,9.1-3.6c3.7,0,6.7,1.3,9.2,3.9c2.4,2.6,3.6,5.8,3.6,9.8v36.7
			c0,3.5,1.2,6.5,3.7,8.9s5.4,3.6,8.8,3.6h23.3c3.3,0,6.3-1.3,8.9-3.8s3.9-5.4,3.9-8.7V35.7c0-4.3,1.1-7.7,3.4-10.2s5.3-3.8,9.1-3.8
			c3.6,0,6.6,1.3,9,3.9C112.1,28.3,113.3,31.6,113.3,35.7z"/>
		<path class="st0" d="M168.5,74.1h27.7c4.2,0,8.3,0.8,12.4,2.3c4.1,1.5,7.9,3.7,11.4,6.5l10.8,8.6c4.1,3.4,7.3,7.7,9.8,12.8
			c2.4,5.1,3.6,10.4,3.6,15.9v48.9c0,5.3-1.2,10.5-3.6,15.6c-2.4,5-5.7,9.3-9.8,12.7l-10.8,9c-3.5,2.7-7.3,4.8-11.4,6.3
			c-4.1,1.5-8.3,2.3-12.4,2.3h-27.7c-4.2,0-8.2-0.7-12.2-2.2s-7.8-3.6-11.4-6.4l-10.8-9c-4.2-3.4-7.4-7.6-9.8-12.7
			c-2.4-5-3.6-10.2-3.6-15.6v-48.9c0-5.4,1.2-10.7,3.6-15.9c2.4-5.1,5.7-9.4,9.8-12.8l10.8-8.6c3.6-2.9,7.4-5.1,11.4-6.6
			C160.2,74.9,164.3,74.1,168.5,74.1z M168.8,98.9c-1.3,0-2.5,0.3-3.9,0.8c-1.3,0.5-2.6,1.3-4,2.3l-10.6,8.9
			c-1.4,1.1-2.5,2.5-3.3,4.1c-0.8,1.7-1.2,3.4-1.2,5.2v48.9c0,1.7,0.4,3.4,1.2,5.1c0.8,1.7,1.9,3,3.3,4.1l10.8,9
			c1.2,0.9,2.4,1.5,3.7,2s2.6,0.7,4,0.7h27.4c1.4,0,2.7-0.2,4.1-0.7c1.4-0.5,2.6-1.2,3.8-2l10.6-8.9c1.3-1,2.3-2.3,3.2-4.1
			c0.9-1.7,1.3-3.4,1.3-5.1v-48.9c0-1.7-0.4-3.5-1.2-5.2s-1.9-3-3.1-4l-10.9-9c-1.3-1-2.5-1.7-3.9-2.3c-1.3-0.5-2.6-0.8-3.9-0.8
			h-27.4V98.9z"/>
		<path class="st0" d="M276.4,35.7v59.1l18.2-11.9c0.4-0.3,0.9-0.6,1.5-1c7.6-5.1,15-7.7,22.4-7.7h15.7c10.2,0,18.9,3.5,26,10.5
			s10.9,15.8,11.3,26.5l3.1,89.5v0.6c0,3.9-1.2,7.1-3.5,9.8c-2.3,2.6-5.1,3.9-8.4,3.9c-3.8,0-6.9-1.2-9.2-3.6
			c-2.4-2.4-3.7-5.7-3.9-9.8l-3.1-90.4c-0.2-3.5-1.4-6.4-3.7-8.6c-2.3-2.2-5.1-3.3-8.5-3.3h-16c-1.5,0-2.8,0.2-4,0.7s-2.9,1.5-5,2.9
			L276.5,125v76c0,4.2-1.2,7.5-3.5,10.1s-5.3,3.9-9,3.9s-6.7-1.3-9-3.9s-3.5-6-3.5-10V35.7c0-4.3,1.1-7.7,3.4-10.2s5.3-3.8,9.1-3.8
			c3.6,0,6.6,1.3,9,3.9C275.2,28.3,276.4,31.6,276.4,35.7z"/>
		<path class="st0" d="M407,88.3V96l14.6-9.9l0.9-0.6c10.7-7.6,20.7-11.4,30.1-11.4H464c12.7,0,22.2,3.8,28.5,11.5
			s9.7,19.4,10.2,35.2l2.8,80.1v0.6c0,3.9-1.2,7.1-3.6,9.6s-5.4,3.8-9,3.8c-3.7,0-6.6-1.2-8.9-3.7c-2.2-2.5-3.4-5.9-3.6-10.3
			l-3.1-80.9c-0.3-7-1.7-12.2-4.3-15.5c-2.6-3.3-6.4-5-11.4-5h-8.2c-4.5,0-10,2.1-16.6,6.4l-0.9,0.6l-29,19.1V201
			c0,4.2-1.2,7.5-3.5,10.1s-5.3,3.9-9,3.9s-6.7-1.3-9-3.9s-3.5-6-3.5-10V88.3c0-4.3,1.1-7.7,3.4-10.3c2.3-2.6,5.3-3.9,9.1-3.9
			c3.6,0,6.6,1.3,9,3.9C405.8,80.7,407,84.1,407,88.3z"/>
		<path class="st0" d="M576.1,35.7v15.6l36.7,45.9l36.7-45.9V35.7c0-4.1,1.2-7.4,3.5-10s5.3-3.9,9-3.9s6.7,1.3,9,3.9
			s3.5,5.9,3.5,10.1V60l-49.2,62v79c0,4.2-1.2,7.5-3.5,10.1s-5.3,3.9-9,3.9s-6.7-1.3-9-3.9c-2.3-2.6-3.5-6-3.5-10v-79l-49.2-62V35.7
			c0-4.3,1.1-7.7,3.4-10.2c2.3-2.5,5.3-3.8,9.1-3.8c3.6,0,6.6,1.3,9,3.9C574.9,28.3,576.1,31.6,576.1,35.7z"/>
		<path class="st0" d="M684.4,74.1h44.4c10.1,0,18.7,3.5,25.9,10.5s11,15.8,11.4,26.5l3.3,89.5v0.6c0,3.9-1.2,7.1-3.6,9.8
			c-2.4,2.6-5.3,3.9-8.7,3.9c-3.5,0-6.4-1.1-8.6-3.3c-2.2-2.2-3.6-5.3-4.2-9.2l-14.6,9.2c-1.6,1-3.4,1.8-5.5,2.4
			c-2.1,0.6-4,0.9-5.6,0.9h-35.5c-10.3,0-19.1-3.6-26.3-10.8c-7.3-7.2-10.9-15.9-10.9-26.1v-14c0-10.2,3.7-18.9,11.1-26.3
			c7.4-7.3,16.1-11,26.2-11h47.7c2,0,4,0.2,5.8,0.5s3.5,0.9,5.2,1.5l-0.9-17.6c-0.2-3.6-1.4-6.5-3.6-8.7c-2.2-2.2-5.1-3.3-8.6-3.3
			h-44.4c-4.2,0-7.4-1.1-9.8-3.3c-2.4-2.2-3.6-5.3-3.6-9.2c0-3.7,1.2-6.7,3.7-9C677.2,75.3,680.4,74.1,684.4,74.1z M682.9,151.7
			c-3.1,0-5.9,1.2-8.3,3.6c-2.4,2.4-3.6,5.3-3.6,8.6v14c0,3.2,1.2,6,3.6,8.4c2.4,2.4,5.3,3.6,8.7,3.6h33.3l26.9-15.1l-0.3-11.1
			c0-3.4-1.2-6.2-3.6-8.5c-2.4-2.3-5.3-3.4-8.6-3.4h-48.1V151.7z"/>
		<path class="st0" d="M801.6,88.3V96l14.6-9.9l0.9-0.6c10.7-7.6,20.7-11.4,30.1-11.4h11.4c12.7,0,22.2,3.8,28.5,11.5
			s9.7,19.4,10.2,35.2l2.8,80.1v0.6c0,3.9-1.2,7.1-3.6,9.6c-2.4,2.5-5.4,3.8-9,3.8c-3.7,0-6.6-1.2-8.9-3.7
			c-2.2-2.5-3.4-5.9-3.6-10.3l-3.1-80.9c-0.3-7-1.7-12.2-4.3-15.5s-6.4-5-11.4-5H848c-4.5,0-10,2.1-16.6,6.4l-0.9,0.6l-29,19.1V201
			c0,4.2-1.2,7.5-3.5,10.1s-5.3,3.9-9,3.9s-6.7-1.3-9-3.9s-3.5-6-3.5-10V88.3c0-4.3,1.1-7.7,3.4-10.3c2.3-2.6,5.3-3.9,9.1-3.9
			c3.6,0,6.6,1.3,9,3.9C800.4,80.7,801.6,84.1,801.6,88.3z"/>
		<path class="st0" d="M932.2,88.3l2.9,80.9c0.4,7.2,1.9,12.4,4.4,15.7c2.6,3.3,6.4,4.9,11.4,4.9h8c4.3,0,9.6-2,16-6.1
			c0.8-0.5,1.3-0.8,1.6-1l29-18.8V88.3c0-4.3,1.1-7.7,3.4-10.3c2.3-2.6,5.3-3.9,9.1-3.9c3.6,0,6.6,1.3,9,3.9c2.4,2.6,3.6,6,3.6,10.2
			v112.7c0,4.2-1.2,7.5-3.5,10.1s-5.3,3.9-9,3.9s-6.7-1.3-9-3.9c-2.3-2.6-3.5-6-3.5-10v-7.7l-14.7,10l-0.1,0.1
			c-10.9,7.7-21.2,11.5-30.9,11.5h-11.2c-12.7,0-22.2-3.8-28.6-11.5c-6.4-7.7-9.8-19.5-10.3-35.4l-2.6-79.8v-0.6
			c0-3.9,1.2-7.1,3.6-9.7c2.4-2.6,5.4-3.9,9-3.9c3.7,0,6.6,1.3,8.9,3.8C930.8,80.5,932,83.9,932.2,88.3z"/>
		<path class="st0" d="M1058,21.7h34.1c4.2,0,7.5,1.2,10.1,3.5s3.9,5.3,3.9,9v155.6h23c4.1,0,7.4,1.1,9.9,3.4
			c2.5,2.3,3.8,5.3,3.8,9.1c0,3.7-1.3,6.7-3.9,9s-5.8,3.5-9.8,3.5h-71c-4.2,0-7.5-1.2-10.1-3.5s-3.9-5.3-3.9-9s1.3-6.7,3.9-9
			s6-3.5,10-3.5h22.7v-143H1058c-4.3,0-7.7-1.1-10.2-3.4c-2.5-2.3-3.8-5.3-3.8-9.1c0-3.7,1.3-6.7,3.9-9
			C1050.6,22.9,1054,21.7,1058,21.7z"/>
		<path class="st0" d="M1192.3,74.1h27.7c4.2,0,8.3,0.8,12.4,2.3s7.9,3.7,11.4,6.5l10.8,8.6c4.1,3.4,7.3,7.7,9.8,12.8
			c2.4,5.1,3.6,10.4,3.6,15.9V150c0,3.6-1.3,6.6-3.9,9s-6,3.6-10,3.6h-84.4v6.6c0,1.7,0.4,3.4,1.2,5.1c0.8,1.7,1.9,3,3.3,4.1l10.6,9
			c1.2,0.9,2.4,1.5,3.6,2c1.2,0.4,2.6,0.7,4.3,0.7h61.4c4.2,0,7.5,1.2,10.1,3.5s3.9,5.3,3.9,9s-1.3,6.7-3.9,9s-6,3.5-10,3.5h-61.7
			c-4.2,0-8.3-0.7-12.2-2.2c-4-1.5-7.8-3.6-11.4-6.4l-10.8-9c-4.2-3.4-7.4-7.6-9.8-12.7c-2.4-5-3.6-10.2-3.6-15.6v-48.9
			c0-5.4,1.2-10.7,3.6-15.9c2.4-5.1,5.7-9.4,9.8-12.8l10.8-8.6c3.6-2.9,7.4-5.1,11.4-6.6C1184.1,74.9,1188.1,74.1,1192.3,74.1z
			 M1192.6,98.9c-1.3,0-2.5,0.3-3.9,0.8c-1.3,0.5-2.6,1.3-4,2.3l-10.6,8.9c-1.4,1.1-2.5,2.5-3.3,4.1c-0.8,1.7-1.2,3.4-1.2,5.2V137
			h73.4v-16.9c0-1.7-0.4-3.5-1.2-5.2c-0.8-1.7-1.9-3-3.1-4l-10.9-9c-1.3-1-2.5-1.7-3.9-2.3c-1.3-0.5-2.6-0.8-3.9-0.8h-27.4V98.9z"/>
		<path class="st0" d="M1300.2,88v16.3l36.7,83.8l36.7-83.8V88c0-4.1,1.2-7.4,3.5-10s5.3-3.9,9-3.9s6.7,1.3,9,3.8s3.5,5.9,3.5,10
			v18.5c0,1.3-0.1,2.5-0.4,3.6c-0.3,1.2-0.7,2.4-1.3,3.6l-39.4,90.4c-1.8,4.2-3.7,7-5.7,8.5c-1.9,1.5-4.3,2.3-7.1,2.3h-15.4
			c-2.9,0-5.3-0.7-7.1-2.2c-1.8-1.5-3.7-4.3-5.7-8.6l-39.4-90.2c-0.7-1.5-1.1-2.7-1.4-3.8c-0.2-1.1-0.4-2.3-0.4-3.6V88
			c0-4.3,1.1-7.6,3.4-10.1s5.3-3.7,9.1-3.7c3.7,0,6.7,1.3,9,3.9C1299.1,80.6,1300.2,83.9,1300.2,88z"/>
		<path class="st0" d="M1426,74.1h34.1c4.2,0,7.5,1.2,10.1,3.5s3.9,5.3,3.9,9v103.2h23c4.1,0,7.4,1.1,9.9,3.4
			c2.5,2.3,3.8,5.3,3.8,9.1c0,3.7-1.3,6.7-3.9,9s-5.8,3.5-9.8,3.5h-71c-4.2,0-7.5-1.2-10.1-3.5s-3.9-5.3-3.9-9s1.3-6.7,3.9-9
			s6-3.5,10-3.5h22.7V99.2H1426c-4.3,0-7.7-1.1-10.2-3.4s-3.8-5.3-3.8-9.1c0-3.6,1.3-6.6,3.9-9C1418.6,75.3,1422,74.1,1426,74.1z
			 M1450.5,11.3h12.2c2.8,0,5.4,1.3,7.8,3.8s3.6,5.4,3.6,8.7v10.5c0,3.6-1.3,6.6-3.9,9s-6,3.6-10,3.6h-9.6c-4.3,0-7.7-1.1-10.2-3.4
			c-2.5-2.3-3.8-5.3-3.8-9.1V23.8c0-3.7,1.3-6.7,3.9-9C1442.9,12.4,1446.3,11.3,1450.5,11.3z"/>
		<path class="st0" d="M1566.1,74.1h49.9c4.1,0,7.4,1.2,10,3.6s3.9,5.4,3.9,9c0,3.8-1.2,6.8-3.7,9s-5.9,3.3-10.3,3.3H1566
			c-1.5,0-2.9,0.3-4.2,0.9c-1.4,0.6-2.8,1.6-4.4,3l-22.3,19.4c-1.1,0.9-1.9,2.1-2.6,3.6c-0.7,1.6-1,3.1-1,4.7v27.8
			c0,1.7,0.3,3.3,1,4.9c0.7,1.6,1.5,2.8,2.5,3.7l22.6,19.5c1.7,1.4,3.3,2.3,4.5,2.8c1.3,0.5,2.6,0.7,3.9,0.7h49.9
			c4.2,0,7.5,1.2,10.1,3.5s3.9,5.3,3.9,9s-1.3,6.7-3.9,9s-6,3.5-10,3.5h-49.9c-4.2,0-8.5-0.8-12.9-2.4c-4.4-1.6-8.1-3.7-11.1-6.2
			l-22.4-19.8c-4.3-3.8-7.5-8.1-9.8-13c-2.2-4.9-3.3-9.9-3.3-15.3v-27.5c0-5.2,1.1-10.3,3.3-15.2c2.2-4.9,5.5-9.2,9.8-13l22.4-19.7
			c3-2.6,6.7-4.7,11.1-6.3C1557.7,74.9,1562,74.1,1566.1,74.1z"/>
		<path class="st0" d="M1662.3,35.7v59.1l18.2-11.9c0.4-0.3,0.9-0.6,1.5-1c7.6-5.1,15-7.7,22.4-7.7h15.7c10.2,0,18.9,3.5,26,10.5
			s10.9,15.8,11.3,26.5l3.1,89.5v0.6c0,3.9-1.2,7.1-3.5,9.8s-5.1,3.9-8.4,3.9c-3.8,0-6.9-1.2-9.2-3.6c-2.4-2.4-3.7-5.7-3.9-9.8
			l-3.1-90.4c-0.2-3.5-1.4-6.4-3.7-8.6c-2.3-2.2-5.1-3.3-8.5-3.3h-16c-1.5,0-2.8,0.2-4,0.7s-2.9,1.5-5,2.9l-32.8,22.1v76
			c0,4.2-1.2,7.5-3.5,10.1s-5.3,3.9-9,3.9s-6.7-1.3-9-3.9c-2.3-2.6-3.5-6-3.5-10V35.7c0-4.3,1.1-7.7,3.4-10.2s5.3-3.8,9.1-3.8
			c3.6,0,6.6,1.3,9,3.9C1661.1,28.3,1662.3,31.6,1662.3,35.7z"/>
	</g>
</g>
<g id="tm">
	<g>
		<path class="st0" d="M1799.3,19.7V32h20.7c1.8,0,3.3,0.5,4.4,1.5s1.7,2.3,1.7,3.9c0,1.6-0.6,2.9-1.7,3.9s-2.6,1.5-4.4,1.5h-20.7
			v34.3c0,1.5,0.5,2.7,1.5,3.7s2.2,1.5,3.7,1.5h10.8c1.1,0,2.2-0.3,3-1c0.9-0.7,1.6-1.6,2-2.8c0-0.1,0.1-0.4,0.3-0.9
			c1-3,2.7-4.5,5.3-4.5c1.5,0,2.7,0.5,3.8,1.6c1,1,1.6,2.2,1.6,3.6c0,3.8-1.6,7.2-4.8,10.3s-7,4.7-11.3,4.7h-10.6
			c-4.5,0-8.3-1.6-11.5-4.8c-3.2-3.2-4.8-7-4.8-11.4V42.9h-4.6c-1.9,0-3.3-0.5-4.4-1.5s-1.6-2.3-1.6-4c0-1.6,0.6-2.9,1.7-3.9
			s2.6-1.6,4.4-1.6h4.6V19.7c0-1.9,0.5-3.3,1.5-4.4s2.3-1.6,4-1.6c1.6,0,2.9,0.5,4,1.6C1798.8,16.5,1799.3,18,1799.3,19.7z"/>
		<path class="st0" d="M1888,44.5l1.4,42.6v0.3c0,1.7-0.5,3.1-1.6,4.2c-1,1.1-2.3,1.7-3.8,1.7c-1.6,0-2.9-0.5-3.9-1.6
			s-1.6-2.5-1.6-4.3l-1.4-42.4c0-0.6-0.2-1.1-0.6-1.5s-0.9-0.6-1.5-0.6c-0.3,0-0.5,0.1-0.8,0.2c-0.3,0.1-0.5,0.2-0.7,0.4l-6.7,5.8
			v37.9c0,1.8-0.5,3.3-1.5,4.4s-2.3,1.7-3.9,1.7s-2.9-0.6-3.9-1.7s-1.5-2.6-1.5-4.4V45.3c0-0.6-0.3-1.1-0.8-1.6s-1.1-0.7-1.7-0.7
			c-0.3,0-0.6,0.1-0.9,0.2c-0.3,0.1-0.5,0.3-0.7,0.5l-7.7,6.2v37.4c0,1.8-0.5,3.3-1.5,4.4s-2.3,1.7-4,1.7c-1.6,0-2.9-0.6-3.9-1.7
			s-1.6-2.6-1.6-4.4V38c0-1.9,0.5-3.3,1.5-4.4c1-1.1,2.3-1.6,4-1.6c1.3,0,2.3,0.3,3.2,1c0.8,0.7,1.5,1.7,2,3l1.8-1.5
			c1.2-0.9,2.4-1.5,3.6-2c1.2-0.4,2.6-0.6,4.1-0.6c2.1,0,4,0.4,5.7,1.2c1.8,0.8,3.4,2.1,5,3.8l1.3-1c1.9-1.6,3.6-2.6,4.9-3.2
			c1.3-0.6,2.7-0.9,4.2-0.9c3.8,0,6.9,1.2,9.4,3.5C1886.5,37.9,1887.8,40.9,1888,44.5z"/>
	</g>
</g>
</svg>
